JosefinSlab-ThinItalic.ufo
<glyph name="comma" format="2">
  <advance width="200"/>
  <unicode hex="002C"/>
  <outline>
    <contour>
      <point x="141" y="86" type="line"/>
      <point x="112" y="34"/>
      <point x="55" y="-68"/>
      <point x="26" y="-120" type="qcurve"/>
      <point x="12" y="-120" type="line"/>
      <point x="39" y="-68"/>
      <point x="91" y="34"/>
      <point x="118" y="86" type="qcurve"/>
    </contour>
  </outline>
</glyph>
<glyph name="three" format="2">
  <advance width="515"/>
  <unicode hex="0033"/>
  <outline>
    <contour>
      <point x="183" y="361" type="qcurve"/>
      <point x="434" y="636" type="line"/>
      <point x="161" y="636" type="line"/>
      <point x="151" y="568" type="line"/>
      <point x="137" y="568" type="line"/>
      <point x="149" y="650" type="line"/>
      <point x="468" y="650" type="line"/>
      <point x="233" y="398" type="line"/>
      <point x="279" y="400"/>
      <point x="356" y="371"/>
      <point x="382.5" y="344.0" type="qcurve" smooth="yes" name="inserted"/>
      <point x="409" y="317"/>
      <point x="434" y="240"/>
      <point x="428" y="195" type="qcurve" smooth="yes"/>
      <point x="422" y="153"/>
      <point x="379" y="79"/>
      <point x="347.5" y="51.5" type="qcurve" smooth="yes" name="inserted"/>
      <point x="316" y="24"/>
      <point x="237" y="-8"/>
      <point x="195" y="-8" type="qcurve" smooth="yes"/>
      <point x="150" y="-8"/>
      <point x="79" y="28"/>
      <point x="56" y="58" type="qcurve"/>
      <point x="67" y="71" type="line"/>
      <point x="87" y="42"/>
      <point x="152" y="6"/>
      <point x="194" y="6" type="qcurve" smooth="yes"/>
      <point x="233" y="6"/>
      <point x="308" y="36"/>
      <point x="338.0" y="62.0" type="qcurve" smooth="yes" name="inserted"/>
      <point x="368" y="88"/>
      <point x="408" y="157"/>
      <point x="414" y="195" type="qcurve" smooth="yes"/>
      <point x="420" y="234"/>
      <point x="398" y="303"/>
      <point x="375.5" y="328.5" type="qcurve" smooth="yes" name="inserted"/>
      <point x="353" y="354"/>
      <point x="286" y="384"/>
      <point x="247" y="384" type="qcurve" smooth="yes"/>
      <point x="231" y="384"/>
      <point x="198" y="372"/>
    </contour>
  </outline>
</glyph>
<glyph name="five" format="2">
  <advance width="543"/>
  <unicode hex="0035"/>
  <outline>
    <contour>
      <point x="476" y="650" type="line"/>
      <point x="464" y="568" type="line"/>
      <point x="450" y="568" type="line"/>
      <point x="460" y="636" type="line"/>
      <point x="201" y="636" type="line"/>
      <point x="164" y="372" type="line"/>
      <point x="188" y="383"/>
      <point x="239" y="395"/>
      <point x="265" y="395" type="qcurve" smooth="yes"/>
      <point x="307" y="395"/>
      <point x="377" y="364"/>
      <point x="401.5" y="337.0" type="qcurve" smooth="yes" name="inserted"/>
      <point x="426" y="310"/>
      <point x="448" y="237"/>
      <point x="442" y="195" type="qcurve" smooth="yes"/>
      <point x="436" y="153"/>
      <point x="393" y="79"/>
      <point x="361.0" y="51.5" type="qcurve" smooth="yes" name="inserted"/>
      <point x="329" y="24"/>
      <point x="250" y="-8"/>
      <point x="208" y="-8" type="qcurve" smooth="yes"/>
      <point x="167" y="-8"/>
      <point x="100" y="22"/>
      <point x="76" y="48" type="qcurve"/>
      <point x="89" y="58" type="line"/>
      <point x="109" y="33"/>
      <point x="170" y="6"/>
      <point x="208" y="6" type="qcurve" smooth="yes"/>
      <point x="248" y="6"/>
      <point x="322" y="36"/>
      <point x="352.0" y="62.0" type="qcurve" smooth="yes" name="inserted"/>
      <point x="382" y="88"/>
      <point x="422" y="157"/>
      <point x="428" y="195" type="qcurve" smooth="yes"/>
      <point x="433" y="234"/>
      <point x="412" y="301"/>
      <point x="389.5" y="326.5" type="qcurve" smooth="yes" name="inserted"/>
      <point x="367" y="352"/>
      <point x="301" y="381"/>
      <point x="261" y="381" type="qcurve" smooth="yes"/>
      <point x="226" y="381"/>
      <point x="165" y="358"/>
      <point x="145" y="341" type="qcurve"/>
      <point x="189" y="650" type="line"/>
    </contour>
  </outline>
</glyph>
<glyph name="semicolon" format="2">
  <advance width="201"/>
  <unicode hex="003B"/>
  <outline>
    <contour>
      <point x="114" y="270" type="qcurve"/>
      <point x="115" y="278"/>
      <point x="128" y="290"/>
      <point x="136" y="290" type="qcurve" smooth="yes"/>
      <point x="144" y="290"/>
      <point x="155" y="278"/>
      <point x="154" y="270" type="qcurve"/>
      <point x="152" y="262"/>
      <point x="139" y="250"/>
      <point x="131" y="250" type="qcurve" smooth="yes"/>
      <point x="123" y="250"/>
      <point x="112" y="262"/>
    </contour>
    <contour>
      <point x="112" y="86" type="line"/>
      <point x="83" y="34"/>
      <point x="26" y="-68"/>
      <point x="-2" y="-120" type="qcurve"/>
      <point x="-16" y="-120" type="line"/>
      <point x="10" y="-68"/>
      <point x="62" y="34"/>
      <point x="89" y="86" type="qcurve"/>
    </contour>
  </outline>
</glyph>
<glyph name="less" format="2">
  <advance width="680"/>
  <unicode hex="003C"/>
  <outline>
    <contour>
      <point x="519" y="1" type="qcurve"/>
      <point x="517" y="-15" type="line"/>
      <point x="416" y="48"/>
      <point x="216" y="175"/>
      <point x="115" y="238" type="qcurve"/>
      <point x="233" y="301"/>
      <point x="469" y="428"/>
      <point x="588" y="491" type="qcurve"/>
      <point x="586" y="475" type="line"/>
      <point x="474" y="415"/>
      <point x="253" y="298"/>
      <point x="141" y="238" type="qcurve"/>
      <point x="235" y="178"/>
      <point x="424" y="61"/>
    </contour>
  </outline>
</glyph>
<glyph name="E" format="2">
  <advance width="571"/>
  <unicode hex="0045"/>
  <outline>
    <contour>
      <point x="36" y="14" type="line"/>
      <point x="118" y="14" type="line"/>
      <point x="213" y="686" type="line"/>
      <point x="131" y="686" type="line"/>
      <point x="133" y="700" type="line"/>
      <point x="620" y="700" type="line"/>
      <point x="598" y="546" type="line"/>
      <point x="584" y="546" type="line"/>
      <point x="604" y="686" type="line"/>
      <point x="227" y="686" type="line"/>
      <point x="181" y="360" type="line"/>
      <point x="533" y="360" type="line"/>
      <point x="531" y="346" type="line"/>
      <point x="179" y="346" type="line"/>
      <point x="132" y="14" type="line"/>
      <point x="523" y="14" type="line"/>
      <point x="543" y="154" type="line"/>
      <point x="557" y="154" type="line"/>
      <point x="536" y="0" type="line"/>
      <point x="35" y="0" type="line"/>
    </contour>
  </outline>
</glyph>
<glyph name="M" format="2">
  <advance width="961"/>
  <unicode hex="004D"/>
  <outline>
    <contour>
      <point x="35" y="0" type="line"/>
      <point x="36" y="14" type="line"/>
      <point x="113" y="14" type="line"/>
      <point x="208" y="686" type="line"/>
      <point x="131" y="686" type="line"/>
      <point x="133" y="700" type="line"/>
      <point x="233" y="700" type="line"/>
      <point x="513" y="253" type="line"/>
      <point x="919" y="700" type="line"/>
      <point x="1019" y="700" type="line"/>
      <point x="1017" y="686" type="line"/>
      <point x="940" y="686" type="line"/>
      <point x="845" y="14" type="line"/>
      <point x="927" y="14" type="line"/>
      <point x="926" y="0" type="line"/>
      <point x="752" y="0" type="line"/>
      <point x="753" y="14" type="line"/>
      <point x="831" y="14" type="line"/>
      <point x="920" y="645" type="line" smooth="yes"/>
      <point x="922" y="660"/>
      <point x="925" y="678"/>
      <point x="927" y="690" type="qcurve"/>
      <point x="923.0" y="685"/>
      <point x="909" y="669"/>
      <point x="905" y="665" type="qcurve" smooth="yes"/>
      <point x="510" y="228" type="line"/>
      <point x="242" y="656" type="line" smooth="yes"/>
      <point x="235" y="667"/>
      <point x="228" y="679"/>
      <point x="221" y="690" type="qcurve"/>
      <point x="220" y="679"/>
      <point x="218" y="658"/>
      <point x="216" y="644" type="qcurve" smooth="yes"/>
      <point x="127" y="14" type="line"/>
      <point x="210" y="14" type="line"/>
      <point x="209" y="0" type="line"/>
    </contour>
  </outline>
</glyph>
<glyph name="X" format="2">
  <advance width="710"/>
  <unicode hex="0058"/>
  <outline>
    <contour>
      <point x="133" y="700" type="line"/>
      <point x="307" y="700" type="line"/>
      <point x="305" y="686" type="line"/>
      <point x="246" y="686" type="line"/>
      <point x="286" y="609"/>
      <point x="363" y="457"/>
      <point x="402" y="381" type="qcurve" smooth="yes"/>
      <point x="408" y="368" type="line"/>
      <point x="418" y="381" type="line"/>
      <point x="656" y="686" type="line"/>
      <point x="597" y="686" type="line"/>
      <point x="599" y="700" type="line"/>
      <point x="773" y="700" type="line"/>
      <point x="771" y="686" type="line"/>
      <point x="672" y="686" type="line"/>
      <point x="607" y="602"/>
      <point x="479" y="439"/>
      <point x="415" y="356" type="qcurve"/>
      <point x="458" y="269"/>
      <point x="545" y="100"/>
      <point x="589" y="14" type="qcurve"/>
      <point x="676" y="14" type="line"/>
      <point x="675" y="0" type="line"/>
      <point x="501" y="0" type="line"/>
      <point x="502" y="14" type="line"/>
      <point x="572" y="14" type="line"/>
      <point x="436" y="279" type="line" smooth="yes"/>
      <point x="427" y="296"/>
      <point x="411" y="332"/>
      <point x="401" y="348" type="qcurve"/>
      <point x="392" y="335" type="line"/>
      <point x="329" y="254"/>
      <point x="203" y="95"/>
      <point x="140" y="14" type="qcurve"/>
      <point x="210" y="14" type="line"/>
      <point x="209" y="0" type="line"/>
      <point x="35" y="0" type="line"/>
      <point x="36" y="14" type="line"/>
      <point x="125" y="14" type="line"/>
      <point x="395" y="360" type="line"/>
      <point x="230" y="686" type="line"/>
      <point x="131" y="686" type="line"/>
    </contour>
  </outline>
</glyph>
<glyph name="Y" format="2">
  <advance width="718"/>
  <unicode hex="0059"/>
  <outline>
    <contour>
      <point x="274" y="14" type="line"/>
      <point x="353" y="14" type="line"/>
      <point x="388" y="262" type="line"/>
      <point x="339" y="368"/>
      <point x="242" y="580"/>
      <point x="193" y="686" type="qcurve"/>
      <point x="131" y="686" type="line"/>
      <point x="133" y="700" type="line"/>
      <point x="307" y="700" type="line"/>
      <point x="305" y="686" type="line"/>
      <point x="210" y="686" type="line"/>
      <point x="255" y="588"/>
      <point x="345" y="396"/>
      <point x="388" y="298" type="qcurve"/>
      <point x="397" y="272" type="line"/>
      <point x="398" y="272" type="line"/>
      <point x="412" y="298" type="line"/>
      <point x="698" y="686" type="line"/>
      <point x="605" y="686" type="line"/>
      <point x="607" y="700" type="line"/>
      <point x="781" y="700" type="line"/>
      <point x="779" y="686" type="line"/>
      <point x="715" y="686" type="line"/>
      <point x="637" y="579"/>
      <point x="480" y="368"/>
      <point x="402" y="262" type="qcurve"/>
      <point x="367" y="14" type="line"/>
      <point x="448" y="14" type="line"/>
      <point x="447" y="0" type="line"/>
      <point x="273" y="0" type="line"/>
    </contour>
  </outline>
</glyph>
<glyph name="bracketleft" format="2">
  <advance width="338"/>
  <unicode hex="005B"/>
  <outline>
    <contour>
      <point x="20" y="-149" type="line"/>
      <point x="145" y="746" type="line"/>
      <point x="308" y="746" type="line"/>
      <point x="306" y="732" type="line"/>
      <point x="159" y="732" type="line"/>
      <point x="38" y="-135" type="line"/>
      <point x="185" y="-135" type="line"/>
      <point x="183" y="-149" type="line"/>
    </contour>
  </outline>
</glyph>
<glyph name="b" format="2">
  <advance width="532"/>
  <unicode hex="0062"/>
  <outline>
    <contour>
      <point x="122" y="0" type="line"/>
      <point x="35" y="0" type="line"/>
      <point x="37" y="14" type="line"/>
      <point x="110" y="14" type="line"/>
      <point x="212" y="736" type="line"/>
      <point x="139" y="736" type="line"/>
      <point x="141" y="750" type="line"/>
      <point x="228" y="750" type="line"/>
      <point x="167" y="321" type="line" smooth="yes"/>
      <point x="165" y="306"/>
      <point x="161" y="275"/>
      <point x="159" y="260" type="qcurve"/>
      <point x="188" y="314"/>
      <point x="294" y="383"/>
      <point x="357" y="383" type="qcurve" smooth="yes"/>
      <point x="397" y="383"/>
      <point x="464" y="352"/>
      <point x="486.5" y="326.0" type="qcurve" smooth="yes" name="inserted"/>
      <point x="509" y="300"/>
      <point x="530" y="228"/>
      <point x="524" y="188" type="qcurve" smooth="yes"/>
      <point x="518" y="147"/>
      <point x="478" y="77"/>
      <point x="448.0" y="50.5" type="qcurve" smooth="yes" name="inserted"/>
      <point x="418" y="24"/>
      <point x="343" y="-6"/>
      <point x="303" y="-6" type="qcurve" smooth="yes"/>
      <point x="240" y="-6"/>
      <point x="152" y="63"/>
      <point x="138" y="117" type="qcurve"/>
      <point x="136" y="101"/>
      <point x="132" y="70"/>
      <point x="130" y="54" type="qcurve" smooth="yes"/>
    </contour>
    <contour>
      <point x="510" y="188" type="qcurve" smooth="yes"/>
      <point x="515" y="225"/>
      <point x="496" y="291"/>
      <point x="475.0" y="316.0" type="qcurve" smooth="yes" name="inserted"/>
      <point x="454" y="341"/>
      <point x="392" y="369"/>
      <point x="355" y="369" type="qcurve" smooth="yes"/>
      <point x="317" y="369"/>
      <point x="248" y="341"/>
      <point x="220.0" y="316.0" type="qcurve" smooth="yes" name="inserted"/>
      <point x="192" y="291"/>
      <point x="154" y="225"/>
      <point x="149" y="188" type="qcurve" smooth="yes"/>
      <point x="144" y="150"/>
      <point x="163" y="85"/>
      <point x="184.0" y="60.5" type="qcurve" smooth="yes" name="inserted"/>
      <point x="205" y="36"/>
      <point x="266" y="8"/>
      <point x="304" y="8" type="qcurve" smooth="yes"/>
      <point x="341" y="8"/>
      <point x="411" y="36"/>
      <point x="439.0" y="60.5" type="qcurve" smooth="yes" name="inserted"/>
      <point x="467" y="85"/>
      <point x="505" y="150"/>
    </contour>
  </outline>
</glyph>
<glyph name="e" format="2">
  <advance width="435"/>
  <unicode hex="0065"/>
  <outline>
    <contour>
      <point x="281" y="369" type="qcurve" smooth="yes"/>
      <point x="236" y="369"/>
      <point x="156" y="328"/>
      <point x="127.0" y="295.0" type="qcurve" smooth="yes" name="inserted"/>
      <point x="98" y="262"/>
      <point x="69" y="178"/>
      <point x="75" y="135" type="qcurve"/>
      <point x="162" y="168"/>
      <point x="332" y="233"/>
      <point x="418" y="266" type="qcurve"/>
      <point x="404" y="312"/>
      <point x="331" y="369"/>
    </contour>
    <contour>
      <point x="435" y="259" type="qcurve"/>
      <point x="345" y="224"/>
      <point x="168" y="157"/>
      <point x="78" y="122" type="qcurve"/>
      <point x="91" y="71"/>
      <point x="172" y="8"/>
      <point x="230" y="8" type="qcurve" smooth="yes"/>
      <point x="266" y="8"/>
      <point x="334" y="34"/>
      <point x="361" y="57" type="qcurve"/>
      <point x="363" y="54"/>
      <point x="367" y="49"/>
      <point x="369" y="46" type="qcurve"/>
      <point x="339" y="22"/>
      <point x="268" y="-6"/>
      <point x="229" y="-6" type="qcurve" smooth="yes"/>
      <point x="188" y="-6"/>
      <point x="122" y="24"/>
      <point x="100" y="50" type="qcurve" smooth="yes" name="inserted"/>
      <point x="77" y="77"/>
      <point x="56" y="147"/>
      <point x="62" y="188" type="qcurve" smooth="yes"/>
      <point x="68" y="228"/>
      <point x="108" y="300"/>
      <point x="138" y="326" type="qcurve" smooth="yes" name="inserted"/>
      <point x="168" y="352"/>
      <point x="242" y="383"/>
      <point x="283" y="383" type="qcurve" smooth="yes"/>
      <point x="313" y="383"/>
      <point x="366" y="363"/>
      <point x="386" y="345" type="qcurve" smooth="yes"/>
      <point x="404" y="329"/>
      <point x="429" y="285"/>
    </contour>
  </outline>
</glyph>
<glyph name="j" format="2">
  <advance width="166"/>
  <unicode hex="006A"/>
  <outline>
    <contour>
      <point x="62" y="375" type="line"/>
      <point x="158" y="375" type="line"/>
      <point x="105" y="-7" type="line" smooth="yes"/>
      <point x="97" y="-64"/>
      <point x="54" y="-151"/>
      <point x="24" y="-180" type="qcurve"/>
      <point x="13" y="-171" type="line"/>
      <point x="42" y="-143"/>
      <point x="83" y="-62"/>
      <point x="90" y="-11" type="qcurve" smooth="yes"/>
      <point x="142" y="361" type="line"/>
      <point x="60" y="361" type="line"/>
    </contour>
    <contour>
      <point x="149" y="500" type="qcurve"/>
      <point x="150" y="508"/>
      <point x="164" y="520"/>
      <point x="172" y="520" type="qcurve" smooth="yes"/>
      <point x="180" y="520"/>
      <point x="190" y="508"/>
      <point x="189" y="500" type="qcurve"/>
      <point x="187" y="492"/>
      <point x="174" y="480"/>
      <point x="166" y="480" type="qcurve" smooth="yes"/>
      <point x="158" y="480"/>
      <point x="147" y="492"/>
    </contour>
  </outline>
</glyph>
<glyph name="v" format="2">
  <advance width="590"/>
  <unicode hex="0076"/>
  <outline>
    <contour>
      <point x="90" y="375" type="line"/>
      <point x="251" y="375" type="line"/>
      <point x="249" y="361" type="line"/>
      <point x="175" y="361" type="line"/>
      <point x="207" y="273"/>
      <point x="270" y="96"/>
      <point x="302" y="8" type="qcurve"/>
      <point x="354" y="90"/>
      <point x="470" y="270"/>
      <point x="527" y="361" type="qcurve"/>
      <point x="469" y="361" type="line"/>
      <point x="471" y="375" type="line"/>
      <point x="610" y="375" type="line"/>
      <point x="608" y="361" type="line"/>
      <point x="542" y="361" type="line"/>
      <point x="480" y="264"/>
      <point x="358" y="74"/>
      <point x="298" y="-23" type="qcurve"/>
      <point x="263" y="74"/>
      <point x="194" y="264"/>
      <point x="160" y="361" type="qcurve"/>
      <point x="88" y="361" type="line"/>
    </contour>
  </outline>
</glyph>
<glyph name="x" format="2">
  <advance width="488"/>
  <unicode hex="0078"/>
  <outline>
    <contour>
      <point x="87" y="375" type="line"/>
      <point x="261" y="375" type="line"/>
      <point x="259" y="361" type="line"/>
      <point x="171" y="361" type="line"/>
      <point x="267" y="198" type="line"/>
      <point x="407" y="361" type="line"/>
      <point x="329" y="361" type="line"/>
      <point x="331" y="375" type="line"/>
      <point x="505" y="375" type="line"/>
      <point x="503" y="361" type="line"/>
      <point x="424" y="361" type="line"/>
      <point x="274" y="186" type="line"/>
      <point x="299" y="142"/>
      <point x="350" y="58"/>
      <point x="375" y="14" type="qcurve"/>
      <point x="454" y="14" type="line"/>
      <point x="453" y="0" type="line"/>
      <point x="279" y="0" type="line"/>
      <point x="280" y="14" type="line"/>
      <point x="359" y="14" type="line"/>
      <point x="335" y="56"/>
      <point x="288" y="135"/>
      <point x="264" y="175" type="qcurve"/>
      <point x="229" y="134"/>
      <point x="161" y="54"/>
      <point x="126" y="14" type="qcurve"/>
      <point x="210" y="14" type="line"/>
      <point x="209" y="0" type="line"/>
      <point x="35" y="0" type="line"/>
      <point x="36" y="14" type="line"/>
      <point x="108" y="14" type="line"/>
      <point x="146" y="57"/>
      <point x="219" y="143"/>
      <point x="257" y="187" type="qcurve"/>
      <point x="231" y="231"/>
      <point x="179" y="316"/>
      <point x="153" y="361" type="qcurve"/>
      <point x="85" y="361" type="line"/>
    </contour>
  </outline>
</glyph>
<glyph name="asciitilde" format="2">
  <advance width="489"/>
  <unicode hex="007E"/>
  <outline>
    <contour>
      <point x="270" y="497" type="qcurve" smooth="yes"/>
      <point x="256" y="515"/>
      <point x="234" y="527"/>
      <point x="220" y="527" type="qcurve" smooth="yes"/>
      <point x="212" y="527"/>
      <point x="190" y="522"/>
      <point x="180" y="516" type="qcurve" smooth="yes" name="inserted"/>
      <point x="169" y="510"/>
      <point x="150" y="489"/>
      <point x="146" y="472" type="qcurve"/>
      <point x="143" y="473"/>
      <point x="136" y="473"/>
      <point x="134" y="474" type="qcurve"/>
      <point x="137" y="492"/>
      <point x="157" y="517"/>
      <point x="169" y="525" type="qcurve" smooth="yes"/>
      <point x="182" y="533"/>
      <point x="210" y="541"/>
      <point x="225" y="541" type="qcurve" smooth="yes"/>
      <point x="245" y="541"/>
      <point x="275" y="520"/>
      <point x="289" y="503" type="qcurve"/>
      <point x="302" y="485"/>
      <point x="324" y="473"/>
      <point x="338" y="473" type="qcurve" smooth="yes"/>
      <point x="346" y="473"/>
      <point x="368" y="478"/>
      <point x="379" y="484" type="qcurve" smooth="yes" name="inserted"/>
      <point x="390" y="490"/>
      <point x="408" y="511"/>
      <point x="412" y="528" type="qcurve"/>
      <point x="415" y="527"/>
      <point x="422" y="527"/>
      <point x="425" y="526" type="qcurve"/>
      <point x="422" y="511"/>
      <point x="408" y="489"/>
      <point x="399" y="481" type="qcurve" smooth="yes"/>
      <point x="385" y="469"/>
      <point x="351" y="459"/>
      <point x="334" y="459" type="qcurve" smooth="yes"/>
      <point x="314" y="459"/>
      <point x="284" y="480"/>
    </contour>
  </outline>
</glyph>
<glyph name="ordfeminine" format="2">
  <advance width="585"/>
  <unicode hex="00AA"/>
  <outline>
    <contour>
      <point x="103" y="442" type="qcurve" smooth="yes"/>
      <point x="107" y="470"/>
      <point x="136" y="522"/>
      <point x="158" y="541" type="qcurve" smooth="yes" name="inserted"/>
      <point x="179" y="560"/>
      <point x="233" y="582"/>
      <point x="262" y="582" type="qcurve" smooth="yes"/>
      <point x="285" y="582"/>
      <point x="323" y="569"/>
      <point x="338" y="557" type="qcurve" smooth="yes" name="inserted"/>
      <point x="354" y="545"/>
      <point x="375" y="513"/>
      <point x="380" y="494" type="qcurve"/>
      <point x="383" y="514"/>
      <point x="391" y="556"/>
      <point x="395" y="576" type="qcurve"/>
      <point x="402" y="576" type="line"/>
      <point x="365" y="316" type="line"/>
      <point x="418" y="316" type="line"/>
      <point x="417" y="306" type="line"/>
      <point x="354" y="306" type="line"/>
      <point x="360" y="345" type="line" smooth="yes"/>
      <point x="362" y="356"/>
      <point x="365" y="379"/>
      <point x="367" y="390" type="qcurve"/>
      <point x="358" y="373"/>
      <point x="333" y="345"/>
      <point x="319" y="334" type="qcurve" smooth="yes"/>
      <point x="298" y="319"/>
      <point x="250" y="302"/>
      <point x="223" y="302" type="qcurve" smooth="yes"/>
      <point x="194" y="302"/>
      <point x="146" y="323"/>
      <point x="130" y="342" type="qcurve" smooth="yes" name="inserted"/>
      <point x="114" y="362"/>
      <point x="98" y="412"/>
    </contour>
    <contour>
      <point x="113" y="442" type="qcurve" smooth="yes"/>
      <point x="109" y="414"/>
      <point x="122" y="367"/>
      <point x="137.5" y="349.5" type="qcurve" smooth="yes" name="inserted"/>
      <point x="153" y="332"/>
      <point x="197" y="312"/>
      <point x="224" y="312" type="qcurve" smooth="yes"/>
      <point x="251" y="312"/>
      <point x="302" y="332"/>
      <point x="322.0" y="349.5" type="qcurve" smooth="yes" name="inserted"/>
      <point x="342" y="367"/>
      <point x="370" y="414"/>
      <point x="373" y="442" type="qcurve" smooth="yes"/>
      <point x="377" y="468"/>
      <point x="363" y="516"/>
      <point x="348.0" y="534.0" type="qcurve" smooth="yes" name="inserted"/>
      <point x="333" y="552"/>
      <point x="287" y="572"/>
      <point x="261" y="572" type="qcurve" smooth="yes"/>
      <point x="233" y="572"/>
      <point x="184" y="552"/>
      <point x="163.5" y="534.0" type="qcurve" smooth="yes" name="inserted"/>
      <point x="143" y="516"/>
      <point x="116" y="468"/>
    </contour>
  </outline>
</glyph>
<glyph name="plusminus" format="2">
  <advance width="524"/>
  <unicode hex="00B1"/>
  <outline>
    <contour>
      <point x="269" y="211" type="line"/>
      <point x="293" y="385" type="line"/>
      <point x="120" y="385" type="line"/>
      <point x="122" y="399" type="line"/>
      <point x="295" y="399" type="line"/>
      <point x="320" y="571" type="line"/>
      <point x="334" y="571" type="line"/>
      <point x="309" y="399" type="line"/>
      <point x="482" y="399" type="line"/>
      <point x="480" y="385" type="line"/>
      <point x="307" y="385" type="line"/>
      <point x="283" y="211" type="line"/>
    </contour>
    <contour>
      <point x="446" y="136" type="line"/>
      <point x="86" y="136" type="line"/>
      <point x="87" y="150" type="line"/>
      <point x="447" y="150" type="line"/>
    </contour>
  </outline>
</glyph>
<glyph name="threequarters" format="2">
  <advance width="1276"/>
  <unicode hex="00BE"/>
  <outline>
    <contour>
      <point x="223" y="485" type="qcurve"/>
      <point x="416" y="697" type="line"/>
      <point x="206" y="697" type="line"/>
      <point x="198" y="645" type="line"/>
      <point x="188" y="645" type="line"/>
      <point x="197" y="708" type="line"/>
      <point x="443" y="708" type="line"/>
      <point x="262" y="513" type="line"/>
      <point x="297" y="515"/>
      <point x="356" y="492"/>
      <point x="376.5" y="471.5" type="qcurve" smooth="yes" name="inserted"/>
      <point x="397" y="451"/>
      <point x="416" y="391"/>
      <point x="412" y="357" type="qcurve" smooth="yes"/>
      <point x="407" y="324"/>
      <point x="374" y="267"/>
      <point x="349.5" y="246.0" type="qcurve" smooth="yes" name="inserted"/>
      <point x="325" y="225"/>
      <point x="265" y="200"/>
      <point x="232" y="200" type="qcurve" smooth="yes"/>
      <point x="198" y="200"/>
      <point x="143" y="228"/>
      <point x="125" y="251" type="qcurve"/>
      <point x="134" y="261" type="line"/>
      <point x="149" y="238"/>
      <point x="199" y="211"/>
      <point x="231" y="211" type="qcurve" smooth="yes"/>
      <point x="262" y="211"/>
      <point x="319" y="234"/>
      <point x="342.5" y="254.0" type="qcurve" smooth="yes" name="inserted"/>
      <point x="366" y="274"/>
      <point x="396" y="327"/>
      <point x="401" y="357" type="qcurve" smooth="yes"/>
      <point x="406" y="387"/>
      <point x="389" y="440"/>
      <point x="371.5" y="459.5" type="qcurve" smooth="yes" name="inserted"/>
      <point x="354" y="479"/>
      <point x="302" y="502"/>
      <point x="272" y="502" type="qcurve" smooth="yes"/>
      <point x="260" y="502"/>
      <point x="235" y="493"/>
    </contour>
    <contour>
      <point x="407" y="-19" type="line"/>
      <point x="504" y="171"/>
      <point x="694" y="546"/>
      <point x="791" y="736" type="qcurve"/>
      <point x="805" y="736" type="line"/>
      <point x="708" y="546"/>
      <point x="518" y="171"/>
      <point x="421" y="-19" type="qcurve"/>
    </contour>
    <contour>
      <point x="871" y="10" type="line"/>
      <point x="928" y="10" type="line"/>
      <point x="946" y="136" type="line"/>
      <point x="684" y="136" type="line"/>
      <point x="1007" y="490" type="line"/>
      <point x="958" y="147" type="line"/>
      <point x="1030" y="147" type="line"/>
      <point x="1029" y="136" type="line"/>
      <point x="957" y="136" type="line"/>
      <point x="939" y="10" type="line"/>
      <point x="1001" y="10" type="line"/>
      <point x="999" y="0" type="line"/>
      <point x="869" y="0" type="line"/>
    </contour>
    <contour>
      <point x="992" y="459" type="line"/>
      <point x="708" y="147" type="line"/>
      <point x="948" y="147" type="line"/>
    </contour>
  </outline>
</glyph>
<glyph name="Eth" format="2">
  <advance width="632"/>
  <unicode hex="00D0"/>
  <outline>
    <contour>
      <point x="94" y="360" type="line"/>
      <point x="158" y="360" type="line"/>
      <point x="204" y="686" type="line"/>
      <point x="131" y="686" type="line"/>
      <point x="133" y="700" type="line"/>
      <point x="343" y="700" type="line" smooth="yes"/>
      <point x="415" y="700"/>
      <point x="536" y="651"/>
      <point x="577.5" y="605.5" type="qcurve" smooth="yes" name="inserted"/>
      <point x="619" y="560"/>
      <point x="657" y="430"/>
      <point x="646" y="350" type="qcurve" smooth="yes"/>
      <point x="637" y="291"/>
      <point x="579" y="167"/>
      <point x="526.0" y="116.0" type="qcurve" smooth="yes" name="inserted"/>
      <point x="473" y="65"/>
      <point x="317" y="0"/>
      <point x="211" y="0" type="qcurve" smooth="yes"/>
      <point x="35" y="0" type="line"/>
      <point x="36" y="14" type="line"/>
      <point x="109" y="14" type="line"/>
      <point x="156" y="346" type="line"/>
      <point x="92" y="346" type="line"/>
    </contour>
    <contour>
      <point x="218" y="686" type="line"/>
      <point x="172" y="360" type="line"/>
      <point x="396" y="360" type="line"/>
      <point x="394" y="346" type="line"/>
      <point x="170" y="346" type="line"/>
      <point x="124" y="15" type="line"/>
      <point x="222" y="15" type="line" smooth="yes"/>
      <point x="321" y="15"/>
      <point x="468" y="77"/>
      <point x="518.5" y="126.0" type="qcurve" smooth="yes" name="inserted"/>
      <point x="569" y="175"/>
      <point x="625" y="293"/>
      <point x="633" y="350" type="qcurve" smooth="yes"/>
      <point x="644" y="427"/>
      <point x="608" y="552"/>
      <point x="568.5" y="595.5" type="qcurve" smooth="yes" name="inserted"/>
      <point x="529" y="639"/>
      <point x="414" y="686"/>
      <point x="347" y="686" type="qcurve" smooth="yes"/>
    </contour>
  </outline>
</glyph>
<glyph name="quotedblleft" format="2">
  <advance width="249"/>
  <unicode hex="201C"/>
  <outline>
    <contour>
      <point x="189" y="590" type="qcurve"/>
      <point x="187" y="585"/>
      <point x="183" y="577"/>
      <point x="181" y="572" type="qcurve"/>
      <point x="155" y="598"/>
      <point x="140" y="671"/>
      <point x="154" y="711" type="qcurve"/>
      <point x="159" y="709"/>
      <point x="167" y="706"/>
      <point x="172" y="704" type="qcurve"/>
      <point x="161" y="669"/>
      <point x="171" y="610"/>
    </contour>
    <contour>
      <point x="85" y="590" type="qcurve"/>
      <point x="83" y="585"/>
      <point x="79" y="577"/>
      <point x="77" y="572" type="qcurve"/>
      <point x="51" y="598"/>
      <point x="36" y="671"/>
      <point x="50" y="711" type="qcurve"/>
      <point x="55" y="709"/>
      <point x="63" y="706"/>
      <point x="68" y="704" type="qcurve"/>
      <point x="57" y="669"/>
      <point x="67" y="610"/>
    </contour>
  </outline>
</glyph>
<glyph name="quotedblbase" format="2">
  <advance width="234"/>
  <unicode hex="201E"/>
  <outline>
    <contour>
      <point x="26" y="-47" type="qcurve"/>
      <point x="24" y="-42"/>
      <point x="23" y="-34"/>
      <point x="22" y="-29" type="qcurve"/>
      <point x="46" y="-9"/>
      <point x="73" y="50"/>
      <point x="71" y="85" type="qcurve"/>
      <point x="76" y="87"/>
      <point x="86" y="90"/>
      <point x="91" y="92" type="qcurve"/>
      <point x="94" y="52"/>
      <point x="58" y="-21"/>
    </contour>
    <contour>
      <point x="130" y="-47" type="qcurve"/>
      <point x="128" y="-42"/>
      <point x="127" y="-34"/>
      <point x="126" y="-29" type="qcurve"/>
      <point x="150" y="-9"/>
      <point x="177" y="50"/>
      <point x="175" y="85" type="qcurve"/>
      <point x="180" y="87"/>
      <point x="190" y="90"/>
      <point x="195" y="92" type="qcurve"/>
      <point x="198" y="52"/>
      <point x="162" y="-21"/>
    </contour>
  </outline>
</glyph>
